<?xml version="1.0" encoding="UTF-8"?><svg id="b" xmlns="http://www.w3.org/2000/svg" viewBox="0 0 516.98 99.84"><g id="c"><g><path d="M36.45,83.99c21.08,0,32.96-12.68,32.96-34.23S57.52,15.85,36.45,15.85H19.81V83.99h16.64ZM0,0H37.72C69.89,0,89.85,18.7,89.85,49.92s-19.97,49.92-52.13,49.92H0V0Z" style="fill:#0b1354;"/><rect x="97.09" y="27.7" width="19.02" height="72.14" style="fill:#0b1354;"/><g><path d="M173.15,46.4c-3.64-2.06-6.81-3.01-11.41-3.01-9.83,0-16.48,6.97-16.48,19.65v36.8h-19.02V27.7h19.02v13.31c2.53-7.92,9.82-15.21,19.49-15.21,4.28,0,7.76,1.11,9.82,2.85l-1.43,17.75Z" style="fill:#0b1354;"/><path d="M227.51,55.94c-.63-8.08-5.55-15.85-16.16-15.85s-15.69,7.13-17.43,15.85h33.6Zm18.07,19.18c-3.65,15.53-15.69,24.72-33.6,24.72-21.55,0-37.08-13.79-37.08-35.81s15.69-37.87,36.61-37.87c22.82,0,34.54,15.85,34.54,34.86v6.82h-52.45c.63,10.3,8.71,17.59,19.02,17.59,9.35,0,14.9-3.96,17.59-11.89l15.37,1.59Z" style="fill:#0b1354;"/><path d="M288.99,26.15c20.76,0,32.17,13.63,33.76,30.43l-16.01,1.11c-1.43-10.46-7.29-16.96-17.75-16.96s-17.75,7.77-17.75,22.35,7.29,22.19,17.75,22.19,16.32-6.66,17.75-17.27l16.01,1.43c-1.58,16.8-13,30.43-33.76,30.43s-36.92-14.58-36.92-36.76,15.37-36.92,36.92-36.92" style="fill:#0b1354;"/><path d="M334.14,41.36h-9.98v-11.25l4.75-.79c6.81-1.11,8.72-4.6,10.3-11.09l2.22-9.51h11.57V28.05h19.02v13.31h-19.02v34.55c0,6.02,2.69,8.71,8.4,8.71,3.8,0,7.76-1.43,11.89-3.33v12.52c-5.07,3.8-10.78,6.02-19.33,6.02-10.78,0-19.81-4.75-19.81-19.65V41.36Z" style="fill:#0b1354;"/></g><polygon points="380.36 0 400.17 49.92 380.36 99.84 400.17 99.84 419.98 49.92 400.17 0 380.36 0" style="fill:#0b1354;"/><g><path d="M463.58,83.99c21.08,0,32.96-12.68,32.96-34.23s-11.88-33.91-32.96-33.91h-16.64V83.99h16.64ZM427.13,0h37.72C497.01,0,516.98,18.7,516.98,49.92s-19.97,49.92-52.13,49.92h-37.72V0Z" style="fill:#0b1354;"/><path d="M106.72,20.86c5.76,0,10.43-4.67,10.43-10.43S112.48,0,106.72,0s-10.43,4.67-10.43,10.43,4.67,10.43,10.43,10.43" style="fill:#0b1354;"/></g></g></g></svg>